<svg xmlns="http://www.w3.org/2000/svg" xmlns:xlink="http://www.w3.org/1999/xlink" width="500" zoomAndPan="magnify" viewBox="0 0 375 374.999991" height="500" preserveAspectRatio="xMidYMid meet" version="1.0"><defs><g/><clipPath id="96d4957efe"><path d="M 148 84.03125 L 213 84.03125 L 213 155 L 148 155 Z M 148 84.03125 " clip-rule="nonzero"/></clipPath><clipPath id="cfa9656cf2"><path d="M 121.773438 111.066406 L 253.023438 111.066406 L 253.023438 233.972656 L 121.773438 233.972656 Z M 121.773438 111.066406 " clip-rule="nonzero"/></clipPath><clipPath id="efc03b2c88"><path d="M 226 84.03125 L 230 84.03125 L 230 90 L 226 90 Z M 226 84.03125 " clip-rule="nonzero"/></clipPath><clipPath id="ace75d71b1"><path d="M 192 108 L 206 108 L 206 112.023438 L 192 112.023438 Z M 192 108 " clip-rule="nonzero"/></clipPath><clipPath id="013fc28998"><path d="M 199 55.773438 L 201 55.773438 L 201 63 L 199 63 Z M 199 55.773438 " clip-rule="nonzero"/></clipPath><clipPath id="ef6ee1dcee"><path d="M 214 81 L 222.105469 81 L 222.105469 83 L 214 83 Z M 214 81 " clip-rule="nonzero"/></clipPath><clipPath id="38762141af"><path d="M 175.605469 81 L 184 81 L 184 83 L 175.605469 83 Z M 175.605469 81 " clip-rule="nonzero"/></clipPath><clipPath id="0b2220716e"><path d="M 87.246094 122.605469 L 132.246094 122.605469 L 132.246094 167.605469 L 87.246094 167.605469 Z M 87.246094 122.605469 " clip-rule="nonzero"/></clipPath><clipPath id="79159bdb82"><path d="M 243.710938 122.605469 L 288.558594 122.605469 L 288.558594 167.605469 L 243.710938 167.605469 Z M 243.710938 122.605469 " clip-rule="nonzero"/></clipPath></defs><path fill="#d6e7fd" d="M 239.121094 118.800781 L 239.121094 179.558594 L 135.496094 179.558594 L 135.496094 118.800781 C 135.496094 115.058594 138.515625 111.996094 142.207031 111.996094 L 144.128906 111.996094 L 144.128906 172.171875 L 230.492188 172.171875 L 230.492188 120.671875 L 220.480469 120.671875 L 220.480469 111.996094 L 232.414062 111.996094 C 236.105469 111.996094 239.121094 115.058594 239.121094 118.800781 Z M 211.570312 148.3125 L 211.570312 150.394531 L 149.609375 150.394531 L 149.609375 100.054688 C 149.609375 100.054688 149.609375 100.054688 154.96875 100.054688 C 156.394531 100.054688 157.730469 99.804688 159.042969 99.445312 L 159.042969 133.578125 C 159.042969 133.578125 168.082031 132.964844 172.675781 137.40625 C 172.828125 137.550781 172.972656 137.695312 173.113281 137.839844 C 173.160156 137.890625 173.203125 137.9375 173.25 137.988281 C 173.339844 138.082031 173.433594 138.175781 173.519531 138.269531 C 173.574219 138.328125 173.625 138.386719 173.675781 138.445312 C 173.753906 138.53125 173.828125 138.617188 173.902344 138.699219 C 173.957031 138.761719 174.007812 138.824219 174.0625 138.886719 C 174.128906 138.96875 174.195312 139.046875 174.261719 139.125 C 174.3125 139.191406 174.363281 139.253906 174.417969 139.320312 C 174.480469 139.398438 174.539062 139.472656 174.597656 139.546875 C 174.648438 139.613281 174.699219 139.679688 174.75 139.75 C 174.804688 139.820312 174.859375 139.894531 174.914062 139.964844 C 174.964844 140.035156 175.015625 140.101562 175.0625 140.171875 C 175.113281 140.238281 175.160156 140.308594 175.207031 140.375 C 175.261719 140.449219 175.308594 140.519531 175.359375 140.589844 C 175.402344 140.652344 175.445312 140.714844 175.484375 140.777344 C 177.570312 143.882812 178.28125 146.515625 180.589844 147.53125 L 180.589844 100.054688 C 180.589844 100.054688 183.914062 96.574219 190.347656 96.574219 C 196.78125 96.574219 200.851562 100.054688 206.210938 100.054688 C 211.570312 100.054688 211.570312 100.054688 211.570312 100.054688 L 211.570312 148.3125 " fill-opacity="1" fill-rule="nonzero"/><path fill="#fcba23" d="M 180.589844 100.054688 C 177.472656 98.6875 177.273438 94.375 172.675781 89.929688 C 168.082031 85.488281 159.042969 86.101562 159.042969 86.101562 L 159.042969 133.578125 C 159.042969 133.578125 168.082031 132.964844 172.675781 137.40625 C 177.273438 141.847656 177.472656 146.164062 180.589844 147.53125 Z M 213.960938 164.976562 L 213.507812 161.445312 L 222.660156 145.773438 L 226.617188 148.007812 L 217.460938 163.679688 L 213.960938 164.976562 " fill-opacity="1" fill-rule="nonzero"/><path fill="#fed26c" d="M 223.09375 232.648438 L 230.914062 232.648438 L 230.914062 222.320312 L 223.09375 222.320312 C 221.132812 222.320312 219.53125 223.925781 219.53125 225.882812 L 219.53125 229.085938 C 219.53125 231.046875 221.132812 232.648438 223.09375 232.648438 Z M 251.886719 179.085938 L 251.886719 184.734375 C 251.886719 188.609375 248.710938 191.785156 244.835938 191.785156 L 130.152344 191.785156 C 126.277344 191.785156 123.101562 188.609375 123.101562 184.734375 L 123.101562 179.085938 L 251.886719 179.085938 " fill-opacity="1" fill-rule="nonzero"/><path fill="#243773" d="M 214.878906 161.726562 L 215.0625 163.15625 L 216.558594 162.601562 L 224.796875 148.5 L 223.148438 147.570312 Z M 212.859375 166.792969 L 212.136719 161.167969 L 222.179688 143.980469 L 228.4375 147.515625 L 218.363281 164.757812 L 212.859375 166.792969 " fill-opacity="1" fill-rule="nonzero"/><path fill="#243773" d="M 206.1875 112.671875 C 206.1875 113.199219 206.1875 113.726562 206.1875 114.253906 C 206.1875 114.949219 206.796875 115.613281 207.511719 115.578125 C 208.230469 115.546875 208.835938 114.996094 208.835938 114.253906 C 208.835938 113.726562 208.835938 113.199219 208.835938 112.671875 C 208.835938 111.980469 208.226562 111.316406 207.511719 111.347656 C 206.792969 111.378906 206.1875 111.929688 206.1875 112.671875 " fill-opacity="1" fill-rule="nonzero"/><path fill="#243773" d="M 195.058594 102.769531 C 197.332031 103.105469 199.234375 104.625 201.464844 105.0625 C 202.484375 105.261719 203.484375 105.183594 204.515625 105.203125 C 206.03125 105.230469 206.136719 105.71875 206.1875 107.304688 C 206.246094 109.007812 208.890625 109.011719 208.835938 107.304688 C 208.757812 104.929688 208.09375 102.929688 205.5 102.589844 C 203.398438 102.3125 201.882812 102.53125 199.824219 101.648438 C 198.527344 101.09375 197.171875 100.425781 195.765625 100.21875 C 194.097656 99.972656 193.378906 102.523438 195.058594 102.769531 " fill-opacity="1" fill-rule="nonzero"/><g clip-path="url(#96d4957efe)"><path fill="#243773" d="M 181.714844 149.070312 C 182.414062 148.445312 185.3125 146.15625 190.347656 146.15625 C 193.484375 146.15625 196.078125 147.066406 198.585938 147.941406 C 199.738281 148.347656 200.910156 148.753906 202.128906 149.070312 Z M 150.933594 101.378906 L 154.96875 101.378906 C 155.859375 101.378906 156.761719 101.28125 157.71875 101.101562 L 157.71875 134.996094 L 159.132812 134.898438 C 159.21875 134.894531 167.632812 134.371094 171.757812 138.359375 C 173.851562 140.382812 174.964844 142.367188 175.949219 144.117188 C 175.980469 144.175781 176.011719 144.230469 176.046875 144.289062 C 174.589844 143.832031 172.855469 143.511719 170.835938 143.511719 C 167.246094 143.511719 164.3125 144.539062 161.722656 145.445312 C 159.449219 146.238281 157.300781 146.992188 154.96875 146.992188 L 150.933594 146.992188 Z M 160.367188 87.394531 C 162.871094 87.414062 168.582031 87.8125 171.757812 90.882812 C 173.851562 92.90625 174.964844 94.890625 175.949219 96.640625 C 176.917969 98.363281 177.773438 99.882812 179.265625 100.835938 L 179.265625 144.535156 C 178.941406 144.039062 178.617188 143.464844 178.257812 142.820312 C 177.238281 141.007812 175.96875 138.75 173.597656 136.453125 C 169.730469 132.714844 163.226562 132.238281 160.367188 132.222656 Z M 179.265625 148.898438 L 179.265625 149.070312 L 159.050781 149.070312 C 160.269531 148.753906 161.441406 148.34375 162.597656 147.941406 C 165.105469 147.066406 167.695312 146.15625 170.835938 146.15625 C 175.488281 146.15625 178.308594 148.101562 179.265625 148.898438 Z M 181.914062 100.640625 C 182.871094 99.847656 185.703125 97.898438 190.347656 97.898438 C 193.484375 97.898438 196.078125 98.804688 198.585938 99.683594 C 200.96875 100.515625 203.429688 101.378906 206.210938 101.378906 L 210.25 101.378906 L 210.25 146.992188 L 206.210938 146.992188 C 203.878906 146.992188 201.730469 146.238281 199.457031 145.445312 C 196.867188 144.539062 193.933594 143.511719 190.347656 143.511719 C 186.523438 143.511719 183.699219 144.648438 181.914062 145.695312 Z M 206.210938 98.730469 C 203.878906 98.730469 201.730469 97.976562 199.457031 97.183594 C 196.867188 96.277344 193.933594 95.25 190.347656 95.25 C 185.214844 95.25 181.886719 97.300781 180.449219 98.425781 C 179.632812 97.78125 179.027344 96.71875 178.257812 95.34375 C 177.238281 93.53125 175.96875 91.273438 173.597656 88.980469 C 168.632812 84.183594 159.34375 84.753906 158.953125 84.78125 L 157.71875 84.863281 L 157.71875 98.410156 C 156.730469 98.625 155.839844 98.730469 154.96875 98.730469 L 148.285156 98.730469 L 148.285156 151.71875 L 174.09375 151.71875 C 174.914062 153.558594 177.441406 154.828125 180.605469 154.828125 C 183.765625 154.828125 186.292969 153.558594 187.117188 151.71875 L 212.894531 151.71875 L 212.894531 98.730469 L 206.210938 98.730469 " fill-opacity="1" fill-rule="nonzero"/></g><path fill="#243773" d="M 206.1875 112.671875 C 206.1875 113.199219 206.1875 113.726562 206.1875 114.253906 C 206.1875 114.949219 206.796875 115.613281 207.511719 115.578125 C 208.230469 115.546875 208.835938 114.996094 208.835938 114.253906 C 208.835938 113.726562 208.835938 113.199219 208.835938 112.671875 C 208.835938 111.980469 208.226562 111.316406 207.511719 111.347656 C 206.792969 111.378906 206.1875 111.929688 206.1875 112.671875 " fill-opacity="1" fill-rule="nonzero"/><path fill="#243773" d="M 195.058594 102.769531 C 197.511719 103.128906 199.535156 104.828125 201.992188 105.148438 C 202.898438 105.265625 204.417969 104.863281 205.226562 105.246094 C 206.292969 105.746094 206.167969 107.832031 206.1875 108.777344 C 206.226562 110.480469 208.871094 110.484375 208.835938 108.777344 C 208.785156 106.445312 208.472656 103.324219 205.757812 102.65625 C 203.832031 102.183594 202.148438 102.648438 200.199219 101.828125 C 198.773438 101.222656 197.3125 100.445312 195.765625 100.21875 C 194.097656 99.972656 193.378906 102.523438 195.058594 102.769531 " fill-opacity="1" fill-rule="nonzero"/><path fill="#243773" d="M 177.160156 186.757812 C 183.976562 186.757812 190.792969 186.757812 197.609375 186.757812 C 199.3125 186.757812 199.316406 184.113281 197.609375 184.113281 C 190.792969 184.113281 183.976562 184.113281 177.160156 184.113281 C 175.457031 184.113281 175.453125 186.757812 177.160156 186.757812 " fill-opacity="1" fill-rule="nonzero"/><path fill="#243773" d="M 231.816406 174.375 L 142.804688 174.375 L 142.804688 120.203125 L 145.453125 120.203125 L 145.453125 171.730469 L 229.167969 171.730469 L 229.167969 122.34375 L 220.519531 122.34375 L 220.519531 119.699219 L 231.816406 119.699219 L 231.816406 174.375 " fill-opacity="1" fill-rule="nonzero"/><g clip-path="url(#cfa9656cf2)"><path fill="#243773" d="M 220.855469 225.882812 C 220.855469 224.648438 221.859375 223.644531 223.09375 223.644531 L 229.589844 223.644531 L 229.589844 231.324219 L 223.09375 231.324219 C 221.859375 231.324219 220.855469 230.320312 220.855469 229.085938 Z M 124.425781 184.734375 L 124.425781 180.410156 L 250.5625 180.410156 L 250.5625 184.734375 C 250.5625 187.890625 247.992188 190.460938 244.835938 190.460938 L 130.152344 190.460938 C 126.996094 190.460938 124.425781 187.890625 124.425781 184.734375 Z M 244.9375 198.570312 C 239.859375 198.679688 234.128906 198.75 232.917969 198.671875 L 232.832031 198.621094 L 232.480469 198.621094 C 229.417969 198.621094 226.925781 196.15625 226.875 193.109375 L 244.835938 193.109375 C 249.453125 193.109375 253.210938 189.351562 253.210938 184.734375 L 253.210938 177.761719 L 240.445312 177.761719 L 240.445312 119.179688 C 240.445312 114.746094 236.84375 111.144531 232.414062 111.144531 L 220.519531 111.144531 L 220.519531 113.792969 L 232.414062 113.792969 C 235.382812 113.792969 237.800781 116.207031 237.800781 119.179688 L 237.800781 177.761719 L 136.820312 177.761719 L 136.820312 119.179688 C 136.820312 116.207031 139.238281 113.792969 142.207031 113.792969 L 144.128906 113.792969 L 144.128906 111.144531 L 142.207031 111.144531 C 137.777344 111.144531 134.175781 114.746094 134.175781 119.179688 L 134.175781 177.761719 L 121.777344 177.761719 L 121.777344 184.734375 C 121.777344 189.351562 125.535156 193.109375 130.152344 193.109375 L 224.226562 193.109375 C 224.277344 197.613281 227.957031 201.265625 232.476562 201.269531 C 233.480469 201.378906 236.25 201.40625 244.964844 201.214844 C 248.058594 201.214844 250.574219 203.734375 250.574219 206.828125 C 250.574219 209.917969 248.058594 212.433594 244.964844 212.433594 L 129.972656 212.433594 C 125.453125 212.433594 121.773438 216.113281 121.773438 220.636719 C 121.773438 225.15625 125.453125 228.835938 129.972656 228.835938 L 218.207031 228.835938 L 218.207031 229.085938 C 218.207031 231.78125 220.398438 233.972656 223.09375 233.972656 L 232.238281 233.972656 L 232.238281 231.285156 C 234.011719 231.285156 235.785156 231.285156 237.558594 231.285156 C 239.261719 231.285156 239.261719 228.640625 237.558594 228.640625 C 235.785156 228.640625 234.011719 228.640625 232.238281 228.640625 L 232.238281 226.332031 C 234.011719 226.332031 235.785156 226.332031 237.558594 226.332031 C 239.261719 226.332031 239.261719 223.683594 237.558594 223.683594 C 235.785156 223.683594 234.011719 223.683594 232.238281 223.683594 L 232.238281 221 L 223.09375 221 C 220.398438 221 218.207031 223.191406 218.207031 225.882812 L 218.207031 226.1875 L 129.972656 226.1875 C 126.910156 226.1875 124.417969 223.695312 124.417969 220.636719 C 124.417969 217.574219 126.910156 215.082031 129.957031 215.082031 L 130.011719 215.085938 L 244.964844 215.082031 C 249.519531 215.082031 253.222656 211.378906 253.222656 206.828125 C 253.222656 202.273438 249.519531 198.570312 244.9375 198.570312 " fill-opacity="1" fill-rule="nonzero"/></g><path fill="#243773" d="M 235.808594 93.433594 L 229.980469 93.433594 L 229.980469 90.785156 L 235.808594 90.785156 L 235.808594 93.433594 " fill-opacity="1" fill-rule="nonzero"/><path fill="#243773" d="M 225.554688 93.433594 L 219.726562 93.433594 L 219.726562 90.785156 L 225.554688 90.785156 L 225.554688 93.433594 " fill-opacity="1" fill-rule="nonzero"/><path fill="#243773" d="M 229.089844 100.148438 L 226.445312 100.148438 L 226.445312 94.320312 L 229.089844 94.320312 L 229.089844 100.148438 " fill-opacity="1" fill-rule="nonzero"/><g clip-path="url(#efc03b2c88)"><path fill="#243773" d="M 229.089844 89.898438 L 226.445312 89.898438 L 226.445312 84.070312 L 229.089844 84.070312 L 229.089844 89.898438 " fill-opacity="1" fill-rule="nonzero"/></g><path fill="#243773" d="M 131.28125 202.011719 L 129.410156 200.140625 L 133.53125 196.019531 L 135.402344 197.890625 L 131.28125 202.011719 " fill-opacity="1" fill-rule="nonzero"/><path fill="#243773" d="M 124.03125 209.257812 L 122.160156 207.386719 L 126.28125 203.269531 L 128.152344 205.140625 L 124.03125 209.257812 " fill-opacity="1" fill-rule="nonzero"/><path fill="#243773" d="M 133.53125 209.257812 L 129.410156 205.140625 L 131.28125 203.269531 L 135.402344 207.386719 L 133.53125 209.257812 " fill-opacity="1" fill-rule="nonzero"/><path fill="#243773" d="M 126.28125 202.011719 L 122.160156 197.890625 L 124.03125 196.019531 L 128.152344 200.140625 L 126.28125 202.011719 " fill-opacity="1" fill-rule="nonzero"/><path fill="#243773" d="M 174.164062 166.195312 C 174.835938 165.226562 175.578125 164.28125 176.410156 163.453125 C 176.675781 163.1875 176.949219 162.929688 177.242188 162.691406 C 177.734375 162.292969 177.742188 162.53125 177.351562 162.136719 C 178.039062 162.828125 177.652344 165.21875 177.71875 166.160156 C 178.074219 171.121094 182.433594 167.859375 184.273438 165.722656 C 185.996094 163.726562 188.535156 160.417969 191.421875 162.476562 C 193.101562 163.675781 194.503906 164.875 196.617188 165.292969 C 197.695312 165.507812 198.820312 165.484375 199.875 165.167969 C 201.296875 164.742188 202.121094 163.863281 203.597656 164.582031 C 205.707031 165.601562 207.300781 165.679688 209.667969 165.679688 C 211.375 165.679688 211.375 163.035156 209.667969 163.035156 C 208.179688 163.035156 206.757812 163.160156 205.371094 162.554688 C 204.535156 162.195312 203.894531 161.636719 202.960938 161.507812 C 201.804688 161.351562 200.945312 161.824219 199.929688 162.277344 C 198.054688 163.121094 196.179688 162.710938 194.5 161.574219 C 192.703125 160.359375 191.582031 159.015625 189.203125 159.203125 C 186.570312 159.414062 184.730469 161.121094 183.097656 163.03125 C 182.351562 163.898438 181.398438 165.503906 180.324219 165.960938 C 180.390625 166.605469 180.398438 166.585938 180.351562 165.890625 C 180.347656 165.6875 180.34375 165.484375 180.339844 165.285156 C 180.320312 164.59375 180.316406 163.90625 180.238281 163.21875 C 180.078125 161.75 179.695312 159.800781 177.890625 159.6875 C 175.371094 159.523438 173.121094 163.074219 171.878906 164.859375 C 170.902344 166.257812 173.195312 167.582031 174.164062 166.195312 " fill-opacity="1" fill-rule="nonzero"/><path fill="#fcba23" d="M 214.113281 80.582031 C 214.113281 72.34375 207.339844 65.691406 199.058594 65.886719 C 191.046875 66.078125 184.609375 72.769531 184.714844 80.78125 C 184.773438 85.019531 186.621094 88.820312 189.539062 91.464844 C 191.882812 93.59375 193.273438 96.574219 193.273438 99.742188 L 193.273438 103.09375 L 205.554688 103.09375 L 205.554688 99.835938 C 205.554688 96.621094 206.957031 93.59375 209.328125 91.425781 C 212.269531 88.738281 214.113281 84.875 214.113281 80.582031 " fill-opacity="1" fill-rule="nonzero"/><path fill="#6388b8" d="M 214.113281 80.582031 L 214.65625 80.582031 C 214.65625 72.160156 207.832031 65.339844 199.414062 65.339844 C 199.289062 65.339844 199.167969 65.339844 199.046875 65.34375 C 194.925781 65.441406 191.203125 67.199219 188.519531 69.957031 C 185.832031 72.710938 184.171875 76.472656 184.171875 80.582031 L 184.171875 80.792969 L 184.171875 80.789062 C 184.234375 85.179688 186.152344 89.125 189.175781 91.867188 C 191.410156 93.898438 192.730469 96.734375 192.730469 99.742188 L 192.730469 103.09375 C 192.730469 103.238281 192.789062 103.378906 192.890625 103.480469 C 192.992188 103.578125 193.128906 103.636719 193.273438 103.636719 L 205.554688 103.636719 C 205.695312 103.636719 205.835938 103.578125 205.9375 103.480469 C 206.039062 103.378906 206.097656 103.238281 206.097656 103.09375 L 206.097656 99.835938 C 206.097656 96.78125 207.429688 93.898438 209.695312 91.828125 C 212.742188 89.042969 214.65625 85.035156 214.65625 80.582031 L 213.570312 80.582031 C 213.570312 84.71875 211.796875 88.4375 208.960938 91.027344 C 206.484375 93.292969 205.011719 96.460938 205.011719 99.835938 L 205.011719 102.550781 L 193.816406 102.550781 L 193.816406 99.742188 C 193.816406 96.414062 192.359375 93.289062 189.902344 91.0625 C 187.09375 88.511719 185.3125 84.855469 185.257812 80.777344 L 185.257812 80.582031 C 185.257812 76.769531 186.796875 73.277344 189.296875 70.714844 C 191.796875 68.148438 195.246094 66.519531 199.070312 66.429688 C 199.183594 66.425781 199.300781 66.425781 199.414062 66.425781 C 203.324219 66.425781 206.859375 68.007812 209.421875 70.570312 C 211.984375 73.132812 213.570312 76.667969 213.570312 80.582031 L 214.113281 80.582031 " fill-opacity="1" fill-rule="nonzero"/><path fill="#fcba23" d="M 214.113281 80.582031 C 214.113281 72.34375 207.339844 65.691406 199.058594 65.886719 C 191.046875 66.078125 184.609375 72.769531 184.714844 80.78125 C 184.773438 85.019531 186.621094 88.820312 189.539062 91.464844 C 191.882812 93.59375 193.273438 96.574219 193.273438 99.742188 L 193.273438 103.09375 L 205.554688 103.09375 L 205.554688 99.835938 C 205.554688 96.621094 206.957031 93.59375 209.328125 91.425781 C 212.269531 88.738281 214.113281 84.875 214.113281 80.582031 " fill-opacity="1" fill-rule="nonzero"/><path fill="#6388b8" d="M 214.113281 80.582031 L 214.65625 80.582031 C 214.65625 72.160156 207.832031 65.339844 199.414062 65.339844 C 199.289062 65.339844 199.167969 65.339844 199.046875 65.34375 C 194.925781 65.441406 191.203125 67.199219 188.519531 69.957031 C 185.832031 72.710938 184.171875 76.472656 184.171875 80.582031 L 184.171875 80.792969 L 184.171875 80.789062 C 184.234375 85.179688 186.152344 89.125 189.175781 91.867188 C 191.410156 93.898438 192.730469 96.734375 192.730469 99.742188 L 192.730469 103.09375 C 192.730469 103.238281 192.789062 103.378906 192.890625 103.480469 C 192.992188 103.578125 193.128906 103.636719 193.273438 103.636719 L 205.554688 103.636719 C 205.695312 103.636719 205.835938 103.578125 205.9375 103.480469 C 206.039062 103.378906 206.097656 103.238281 206.097656 103.09375 L 206.097656 99.835938 C 206.097656 96.78125 207.429688 93.898438 209.695312 91.828125 C 212.742188 89.042969 214.65625 85.035156 214.65625 80.582031 L 213.570312 80.582031 C 213.570312 84.71875 211.796875 88.4375 208.960938 91.027344 C 206.484375 93.292969 205.011719 96.460938 205.011719 99.835938 L 205.011719 102.550781 L 193.816406 102.550781 L 193.816406 99.742188 C 193.816406 96.414062 192.359375 93.289062 189.902344 91.0625 C 187.09375 88.511719 185.3125 84.855469 185.257812 80.777344 L 185.257812 80.582031 C 185.257812 76.769531 186.796875 73.277344 189.296875 70.714844 C 191.796875 68.148438 195.246094 66.519531 199.070312 66.429688 C 199.183594 66.425781 199.300781 66.425781 199.414062 66.425781 C 203.324219 66.425781 206.859375 68.007812 209.421875 70.570312 C 211.984375 73.132812 213.570312 76.667969 213.570312 80.582031 L 214.113281 80.582031 " fill-opacity="1" fill-rule="nonzero"/><path fill="#fed26c" d="M 201.363281 102.550781 L 193.816406 102.550781 L 193.816406 99.742188 C 193.816406 96.414062 192.359375 93.289062 189.902344 91.0625 C 187.09375 88.511719 185.3125 84.855469 185.257812 80.777344 L 185.257812 80.582031 C 185.257812 76.769531 186.796875 73.277344 189.296875 70.714844 C 191.796875 68.148438 195.246094 66.519531 199.070312 66.429688 C 199.183594 66.425781 199.300781 66.425781 199.414062 66.425781 C 199.597656 66.425781 199.785156 66.429688 199.972656 66.4375 C 198.65625 72.089844 197.695312 77.832031 197.53125 83.628906 C 197.347656 90.144531 198.308594 96.816406 201.363281 102.550781 " fill-opacity="1" fill-rule="nonzero"/><path fill="#5271ff" d="M 201.660156 103.09375 L 193.273438 103.09375 L 193.273438 99.742188 C 193.273438 96.574219 191.882812 93.59375 189.539062 91.464844 C 186.621094 88.820312 184.773438 85.019531 184.714844 80.78125 C 184.609375 72.769531 191.046875 66.078125 199.058594 65.886719 C 199.152344 65.882812 199.246094 65.882812 199.335938 65.882812 C 199.59375 65.882812 199.84375 65.890625 200.09375 65.902344 C 200.054688 66.078125 200.011719 66.257812 199.972656 66.4375 C 199.785156 66.429688 199.597656 66.425781 199.414062 66.425781 C 199.300781 66.425781 199.183594 66.425781 199.070312 66.429688 C 195.246094 66.519531 191.796875 68.148438 189.296875 70.714844 C 186.796875 73.277344 185.257812 76.769531 185.257812 80.582031 L 185.257812 80.777344 C 185.3125 84.855469 187.09375 88.511719 189.902344 91.0625 C 192.359375 93.289062 193.816406 96.414062 193.816406 99.742188 L 193.816406 102.550781 L 201.363281 102.550781 C 201.460938 102.734375 201.558594 102.914062 201.660156 103.09375 " fill-opacity="1" fill-rule="nonzero"/><path fill="#6388b8" d="M 197.605469 102.988281 L 194.160156 85.527344 C 194.113281 85.285156 193.875 85.125 193.632812 85.171875 C 193.386719 85.222656 193.226562 85.460938 193.277344 85.703125 L 196.722656 103.164062 C 196.769531 103.410156 197.007812 103.566406 197.25 103.519531 C 197.496094 103.46875 197.652344 103.234375 197.605469 102.988281 " fill-opacity="1" fill-rule="nonzero"/><path fill="#6388b8" d="M 202.269531 103.164062 L 205.714844 85.703125 C 205.761719 85.460938 205.605469 85.222656 205.359375 85.171875 C 205.117188 85.125 204.878906 85.285156 204.832031 85.527344 L 201.386719 102.988281 C 201.335938 103.234375 201.496094 103.46875 201.742188 103.519531 C 201.984375 103.566406 202.222656 103.410156 202.269531 103.164062 " fill-opacity="1" fill-rule="nonzero"/><path fill="#fbfcfa" d="M 205.488281 109.148438 L 193.304688 109.148438 L 193.253906 103.09375 L 205.535156 103.09375 L 205.488281 109.148438 " fill-opacity="1" fill-rule="nonzero"/><path fill="#6388b8" d="M 205.488281 109.148438 L 205.488281 108.605469 L 193.84375 108.605469 L 193.800781 103.636719 L 204.988281 103.636719 L 204.945312 109.144531 L 205.488281 109.148438 L 205.488281 108.605469 L 205.488281 109.148438 L 206.03125 109.152344 L 206.078125 103.097656 C 206.082031 102.953125 206.023438 102.816406 205.921875 102.710938 C 205.820312 102.609375 205.679688 102.550781 205.535156 102.550781 L 193.253906 102.550781 C 193.109375 102.550781 192.972656 102.609375 192.871094 102.710938 C 192.765625 102.816406 192.710938 102.953125 192.710938 103.097656 L 192.761719 109.152344 C 192.761719 109.453125 193.007812 109.691406 193.304688 109.691406 L 205.488281 109.691406 C 205.785156 109.691406 206.027344 109.453125 206.03125 109.152344 L 205.488281 109.148438 " fill-opacity="1" fill-rule="nonzero"/><path fill="#fbfcfa" d="M 193.347656 109.175781 C 193.667969 110.675781 194.996094 111.746094 196.527344 111.746094 L 202.261719 111.746094 C 203.796875 111.746094 205.121094 110.675781 205.441406 109.175781 L 193.347656 109.175781 " fill-opacity="1" fill-rule="nonzero"/><g clip-path="url(#ace75d71b1)"><path fill="#6388b8" d="M 193.347656 109.175781 L 192.820312 109.289062 C 193.191406 111.039062 194.738281 112.289062 196.527344 112.289062 L 202.261719 112.289062 C 204.054688 112.289062 205.601562 111.039062 205.972656 109.289062 C 206.007812 109.128906 205.96875 108.960938 205.867188 108.832031 C 205.761719 108.703125 205.609375 108.632812 205.441406 108.632812 L 193.347656 108.632812 C 193.183594 108.632812 193.027344 108.703125 192.925781 108.832031 C 192.824219 108.960938 192.78125 109.128906 192.820312 109.289062 L 193.347656 109.175781 L 193.347656 109.71875 L 205.441406 109.71875 L 205.441406 109.175781 L 204.914062 109.0625 C 204.644531 110.3125 203.539062 111.203125 202.261719 111.203125 L 196.527344 111.203125 C 195.25 111.203125 194.144531 110.3125 193.878906 109.0625 L 193.347656 109.175781 L 193.347656 109.71875 L 193.347656 109.175781 " fill-opacity="1" fill-rule="nonzero"/></g><path fill="#6388b8" d="M 194.683594 89.085938 L 197.097656 86.347656 L 199.113281 89.292969 C 199.195312 89.410156 199.320312 89.480469 199.464844 89.488281 C 199.601562 89.496094 199.738281 89.4375 199.828125 89.328125 L 202.339844 86.347656 L 204.28125 89.050781 C 204.429688 89.25 204.710938 89.296875 204.910156 89.152344 C 205.113281 89.007812 205.160156 88.726562 205.015625 88.523438 L 202.734375 85.351562 C 202.652344 85.238281 202.523438 85.171875 202.386719 85.164062 C 202.25 85.160156 202.113281 85.21875 202.023438 85.328125 L 199.519531 88.296875 L 197.515625 85.363281 C 197.4375 85.246094 197.308594 85.171875 197.171875 85.164062 C 197.03125 85.15625 196.894531 85.214844 196.804688 85.316406 L 194.003906 88.488281 C 193.84375 88.675781 193.859375 88.960938 194.046875 89.125 C 194.234375 89.289062 194.515625 89.269531 194.683594 89.085938 " fill-opacity="1" fill-rule="nonzero"/><g clip-path="url(#013fc28998)"><path fill="#6388b8" d="M 200.242188 62.363281 L 200.242188 56.332031 C 200.242188 56.027344 199.996094 55.78125 199.691406 55.78125 C 199.386719 55.78125 199.140625 56.027344 199.140625 56.332031 L 199.140625 62.363281 C 199.140625 62.667969 199.386719 62.914062 199.691406 62.914062 C 199.996094 62.914062 200.242188 62.667969 200.242188 62.363281 " fill-opacity="1" fill-rule="nonzero"/></g><path fill="#6388b8" d="M 207.667969 63.746094 L 211.351562 58.972656 C 211.535156 58.730469 211.488281 58.386719 211.25 58.199219 C 211.011719 58.015625 210.664062 58.058594 210.480469 58.300781 L 206.796875 63.074219 C 206.609375 63.316406 206.65625 63.664062 206.894531 63.847656 C 207.136719 64.03125 207.484375 63.988281 207.667969 63.746094 " fill-opacity="1" fill-rule="nonzero"/><path fill="#6388b8" d="M 193.253906 63.074219 L 189.574219 58.300781 C 189.386719 58.058594 189.042969 58.015625 188.800781 58.199219 C 188.5625 58.386719 188.515625 58.730469 188.703125 58.972656 L 192.382812 63.746094 C 192.570312 63.988281 192.914062 64.03125 193.15625 63.847656 C 193.398438 63.664062 193.441406 63.316406 193.253906 63.074219 " fill-opacity="1" fill-rule="nonzero"/><path fill="#6388b8" d="M 213.019531 69.214844 L 218.042969 66.535156 C 218.3125 66.390625 218.410156 66.058594 218.269531 65.789062 C 218.128906 65.523438 217.792969 65.421875 217.527344 65.566406 L 212.5 68.246094 C 212.230469 68.390625 212.132812 68.722656 212.273438 68.988281 C 212.414062 69.257812 212.75 69.355469 213.019531 69.214844 " fill-opacity="1" fill-rule="nonzero"/><path fill="#6388b8" d="M 187.550781 67.238281 L 182.523438 64.558594 C 182.257812 64.417969 181.925781 64.515625 181.78125 64.785156 C 181.640625 65.054688 181.742188 65.386719 182.007812 65.53125 L 187.035156 68.210938 C 187.304688 68.355469 187.636719 68.253906 187.777344 67.984375 C 187.921875 67.714844 187.820312 67.382812 187.550781 67.238281 " fill-opacity="1" fill-rule="nonzero"/><path fill="#6388b8" d="M 215.167969 75.976562 L 220.863281 75.308594 C 221.164062 75.273438 221.382812 75 221.347656 74.699219 C 221.3125 74.398438 221.039062 74.179688 220.738281 74.214844 L 215.039062 74.886719 C 214.738281 74.921875 214.523438 75.195312 214.558594 75.496094 C 214.59375 75.796875 214.867188 76.015625 215.167969 75.976562 " fill-opacity="1" fill-rule="nonzero"/><path fill="#6388b8" d="M 183.335938 74.214844 L 177.640625 73.546875 C 177.339844 73.511719 177.066406 73.726562 177.027344 74.027344 C 176.992188 74.332031 177.210938 74.601562 177.511719 74.636719 L 183.207031 75.308594 C 183.507812 75.34375 183.78125 75.128906 183.820312 74.828125 C 183.855469 74.523438 183.640625 74.25 183.335938 74.214844 " fill-opacity="1" fill-rule="nonzero"/><g clip-path="url(#ef6ee1dcee)"><path fill="#6388b8" d="M 215.4375 82.683594 L 221.804688 82.683594 C 222.109375 82.683594 222.355469 82.4375 222.355469 82.132812 C 222.355469 81.832031 222.109375 81.585938 221.804688 81.585938 L 215.4375 81.585938 C 215.136719 81.585938 214.890625 81.832031 214.890625 82.132812 C 214.890625 82.4375 215.136719 82.683594 215.4375 82.683594 " fill-opacity="1" fill-rule="nonzero"/></g><g clip-path="url(#38762141af)"><path fill="#6388b8" d="M 176.234375 82.683594 L 182.601562 82.683594 C 182.90625 82.683594 183.152344 82.4375 183.152344 82.132812 C 183.152344 81.832031 182.90625 81.585938 182.601562 81.585938 L 176.234375 81.585938 C 175.933594 81.585938 175.683594 81.832031 175.683594 82.132812 C 175.683594 82.4375 175.933594 82.683594 176.234375 82.683594 " fill-opacity="1" fill-rule="nonzero"/></g><path fill="#6388b8" d="M 193.683594 106.726562 L 201.214844 106.726562 C 201.519531 106.726562 201.765625 106.476562 201.765625 106.171875 C 201.765625 105.867188 201.519531 105.617188 201.214844 105.617188 L 193.683594 105.617188 C 193.375 105.617188 193.128906 105.867188 193.128906 106.171875 C 193.128906 106.476562 193.375 106.726562 193.683594 106.726562 " fill-opacity="1" fill-rule="nonzero"/><g clip-path="url(#0b2220716e)"><path fill="#243773" d="M 119.253906 143.863281 C 119.109375 144.027344 118.929688 144.132812 118.734375 144.199219 C 118.539062 144.304688 118.328125 144.34375 118.109375 144.335938 C 116.953125 144.292969 115.789062 144.253906 114.636719 144.222656 C 113.726562 144.199219 112.816406 144.179688 111.894531 144.164062 C 111.894531 144.410156 111.894531 144.644531 111.894531 144.886719 C 111.902344 147.117188 111.910156 149.34375 111.929688 151.566406 C 111.929688 152.003906 111.742188 152.394531 111.449219 152.710938 C 111.15625 153.027344 110.714844 153.167969 110.300781 153.191406 C 110.074219 153.199219 109.871094 153.152344 109.675781 153.054688 C 109.472656 152.988281 109.300781 152.875 109.15625 152.71875 C 108.863281 152.425781 108.683594 151.988281 108.675781 151.574219 C 108.667969 150.320312 108.667969 149.066406 108.660156 147.816406 C 108.652344 146.589844 108.652344 145.359375 108.644531 144.132812 C 108.539062 144.132812 108.429688 144.132812 108.324219 144.132812 C 106.242188 144.125 104.152344 144.132812 102.074219 144.171875 C 101.632812 144.179688 101.234375 143.984375 100.925781 143.691406 C 100.609375 143.398438 100.46875 142.960938 100.445312 142.546875 C 100.4375 142.320312 100.488281 142.117188 100.585938 141.921875 C 100.648438 141.71875 100.761719 141.546875 100.917969 141.398438 C 101.21875 141.097656 101.648438 140.929688 102.0625 140.921875 C 103.21875 140.894531 104.382812 140.886719 105.535156 140.878906 C 106.5625 140.871094 107.59375 140.871094 108.617188 140.878906 C 108.609375 138.75 108.601562 136.609375 108.585938 134.480469 C 108.585938 134.039062 108.773438 133.648438 109.066406 133.332031 C 109.359375 133.015625 109.796875 132.878906 110.210938 132.851562 C 110.441406 132.84375 110.644531 132.894531 110.839844 132.992188 C 111.042969 133.054688 111.210938 133.171875 111.359375 133.324219 C 111.652344 133.617188 111.832031 134.058594 111.839844 134.472656 C 111.847656 135.722656 111.847656 136.976562 111.855469 138.226562 C 111.855469 139.121094 111.863281 140.015625 111.863281 140.910156 C 113.9375 140.945312 116.011719 141 118.09375 141.082031 C 118.539062 141.097656 118.914062 141.261719 119.238281 141.5625 C 119.554688 141.855469 119.695312 142.292969 119.71875 142.710938 C 119.726562 142.9375 119.679688 143.140625 119.582031 143.335938 C 119.523438 143.539062 119.410156 143.710938 119.253906 143.863281 Z M 131.070312 160.152344 C 129.640625 160.09375 128.207031 160.046875 126.777344 160.023438 C 126.695312 160.023438 126.605469 160.023438 126.523438 160.015625 C 126.523438 159.136719 126.515625 158.265625 126.515625 157.386719 C 126.515625 156.5 126.507812 155.613281 126.507812 154.726562 C 126.507812 154.46875 126.394531 154.191406 126.207031 154.011719 C 126.027344 153.832031 125.746094 153.703125 125.492188 153.710938 C 125.230469 153.71875 124.957031 153.808594 124.777344 154.011719 C 124.597656 154.207031 124.476562 154.460938 124.476562 154.726562 C 124.484375 156.296875 124.492188 157.867188 124.5 159.445312 C 124.5 159.625 124.5 159.8125 124.5 159.988281 C 123.832031 159.980469 123.160156 159.980469 122.492188 159.980469 C 121.679688 159.980469 120.875 159.988281 120.058594 160.003906 C 119.800781 160.003906 119.53125 160.121094 119.34375 160.308594 C 119.164062 160.484375 119.035156 160.769531 119.042969 161.023438 C 119.050781 161.28125 119.140625 161.558594 119.34375 161.738281 C 119.539062 161.917969 119.792969 162.039062 120.058594 162.039062 C 121.492188 162.015625 122.921875 162.015625 124.355469 162.023438 C 124.402344 162.023438 124.460938 162.023438 124.507812 162.023438 C 124.507812 162.738281 124.515625 163.453125 124.515625 164.175781 C 124.515625 165.0625 124.523438 165.949219 124.523438 166.835938 C 124.523438 167.097656 124.636719 167.375 124.824219 167.550781 C 125.003906 167.730469 125.289062 167.859375 125.542969 167.851562 C 125.800781 167.84375 126.078125 167.753906 126.257812 167.550781 C 126.4375 167.355469 126.558594 167.105469 126.558594 166.835938 C 126.550781 165.265625 126.542969 163.699219 126.535156 162.121094 C 126.535156 162.09375 126.535156 162.070312 126.535156 162.046875 C 127.234375 162.0625 127.941406 162.078125 128.640625 162.09375 C 129.453125 162.121094 130.257812 162.144531 131.070312 162.183594 C 131.324219 162.191406 131.617188 162.0625 131.785156 161.882812 C 131.964844 161.707031 132.09375 161.421875 132.085938 161.167969 C 132.0625 160.597656 131.640625 160.175781 131.070312 160.152344 Z M 98.671875 148.808594 C 97.589844 148.808594 96.503906 148.816406 95.421875 148.832031 C 95.421875 148.425781 95.421875 148.027344 95.414062 147.621094 C 95.414062 147.035156 95.402344 146.449219 95.402344 145.871094 C 95.402344 145.554688 95.128906 145.246094 94.792969 145.261719 C 94.46875 145.277344 94.183594 145.53125 94.183594 145.871094 C 94.191406 146.871094 94.191406 147.863281 94.199219 148.863281 C 93.710938 148.882812 93.226562 148.898438 92.746094 148.914062 C 92.183594 148.9375 91.621094 148.960938 91.070312 148.996094 C 90.753906 149.011719 90.445312 149.261719 90.460938 149.605469 C 90.476562 149.921875 90.726562 150.230469 91.070312 150.214844 C 92.117188 150.15625 93.167969 150.117188 94.207031 150.085938 C 94.207031 150.679688 94.21875 151.273438 94.21875 151.859375 C 94.21875 152.441406 94.226562 153.027344 94.226562 153.605469 C 94.226562 153.921875 94.5 154.230469 94.835938 154.214844 C 95.160156 154.199219 95.445312 153.949219 95.445312 153.605469 C 95.4375 152.417969 95.4375 151.230469 95.429688 150.042969 C 95.949219 150.035156 96.46875 150.027344 97 150.019531 C 97.558594 150.011719 98.121094 150.011719 98.679688 150.011719 C 99 150.011719 99.308594 149.726562 99.292969 149.402344 C 99.265625 149.085938 99.015625 148.808594 98.671875 148.808594 Z M 122.726562 133.046875 C 123.460938 133.007812 124.199219 132.984375 124.929688 132.957031 C 124.929688 133.390625 124.929688 133.820312 124.9375 134.261719 C 124.9375 134.714844 124.949219 135.179688 124.949219 135.632812 C 124.949219 135.953125 125.222656 136.261719 125.558594 136.246094 C 125.882812 136.226562 126.167969 135.976562 126.167969 135.632812 C 126.167969 134.730469 126.160156 133.828125 126.160156 132.925781 C 126.492188 132.917969 126.816406 132.917969 127.152344 132.910156 C 127.566406 132.910156 127.988281 132.902344 128.402344 132.910156 C 128.722656 132.910156 129.03125 132.625 129.011719 132.300781 C 128.996094 131.96875 128.746094 131.691406 128.402344 131.691406 C 127.65625 131.691406 126.898438 131.691406 126.152344 131.707031 C 126.152344 131.398438 126.152344 131.082031 126.144531 130.769531 C 126.144531 130.316406 126.136719 129.851562 126.136719 129.398438 C 126.136719 129.078125 125.859375 128.769531 125.523438 128.789062 C 125.199219 128.804688 124.914062 129.054688 124.914062 129.398438 C 124.914062 130.179688 124.921875 130.957031 124.921875 131.738281 C 124.605469 131.746094 124.296875 131.753906 123.980469 131.773438 C 123.566406 131.789062 123.140625 131.804688 122.726562 131.828125 C 122.410156 131.84375 122.101562 132.097656 122.117188 132.4375 C 122.132812 132.746094 122.386719 133.066406 122.726562 133.046875 Z M 106.667969 161.03125 C 106.097656 161.03125 105.535156 161.03125 104.96875 161.046875 C 104.96875 160.46875 104.960938 159.882812 104.960938 159.304688 C 104.960938 158.996094 104.691406 158.695312 104.367188 158.710938 C 104.046875 158.730469 103.773438 158.972656 103.773438 159.304688 C 103.773438 159.898438 103.78125 160.484375 103.78125 161.078125 C 103.226562 161.09375 102.683594 161.121094 102.128906 161.144531 C 101.820312 161.160156 101.519531 161.40625 101.535156 161.738281 C 101.550781 162.046875 101.796875 162.347656 102.128906 162.332031 C 102.683594 162.300781 103.234375 162.28125 103.789062 162.265625 C 103.789062 162.941406 103.796875 163.617188 103.796875 164.300781 C 103.796875 164.609375 104.066406 164.910156 104.390625 164.894531 C 104.707031 164.875 104.984375 164.632812 104.984375 164.300781 C 104.984375 163.617188 104.976562 162.925781 104.976562 162.242188 C 105.535156 162.234375 106.105469 162.226562 106.667969 162.226562 C 106.976562 162.226562 107.277344 161.949219 107.261719 161.632812 C 107.246094 161.296875 107 161.03125 106.667969 161.03125 Z M 91.046875 129.972656 L 91.054688 131.804688 C 91.054688 132.226562 91.425781 132.632812 91.867188 132.617188 C 92.304688 132.601562 92.679688 132.257812 92.679688 131.804688 L 92.664062 128.210938 C 93.109375 128.195312 93.558594 128.175781 94.003906 128.167969 C 94.566406 128.152344 95.128906 128.144531 95.6875 128.144531 C 96.113281 128.144531 96.519531 127.769531 96.503906 127.332031 C 96.484375 126.890625 96.144531 126.519531 95.6875 126.519531 C 94.679688 126.519531 93.671875 126.550781 92.65625 126.582031 L 92.648438 125.257812 L 92.640625 123.4375 C 92.640625 123.011719 92.265625 122.605469 91.828125 122.625 C 91.386719 122.640625 91.011719 122.980469 91.011719 123.4375 C 91.019531 124.511719 91.019531 125.574219 91.027344 126.648438 C 90.605469 126.664062 90.175781 126.679688 89.753906 126.6875 C 89.191406 126.707031 88.628906 126.714844 88.078125 126.714844 C 87.65625 126.714844 87.246094 127.085938 87.265625 127.527344 C 87.28125 127.964844 87.621094 128.339844 88.078125 128.339844 C 89.0625 128.339844 90.054688 128.308594 91.039062 128.273438 C 91.039062 128.835938 91.046875 129.40625 91.046875 129.972656 Z M 91.046875 129.972656 " fill-opacity="1" fill-rule="nonzero"/></g><g fill="#01225a" fill-opacity="0.4"><g transform="translate(134.334349, 265.287916)"><g><path d="M 16.203125 -22.046875 C 16.410156 -22.378906 16.710938 -22.609375 17.109375 -22.734375 C 17.503906 -22.859375 18 -22.921875 18.59375 -22.921875 C 19.1875 -22.921875 19.660156 -22.867188 20.015625 -22.765625 C 20.367188 -22.660156 20.640625 -22.535156 20.828125 -22.390625 C 21.015625 -22.242188 21.148438 -22.023438 21.234375 -21.734375 C 21.359375 -21.378906 21.421875 -20.835938 21.421875 -20.109375 L 21.421875 -10.6875 C 21.421875 -7.9375 20.566406 -5.4375 18.859375 -3.1875 C 18.023438 -2.125 16.953125 -1.265625 15.640625 -0.609375 C 14.335938 0.046875 12.890625 0.375 11.296875 0.375 C 9.703125 0.375 8.253906 0.0390625 6.953125 -0.625 C 5.648438 -1.289062 4.59375 -2.164062 3.78125 -3.25 C 2.09375 -5.457031 1.25 -7.957031 1.25 -10.75 L 1.25 -20.140625 C 1.25 -20.640625 1.265625 -21.007812 1.296875 -21.25 C 1.328125 -21.488281 1.425781 -21.765625 1.59375 -22.078125 C 1.757812 -22.390625 2.039062 -22.609375 2.4375 -22.734375 C 2.832031 -22.859375 3.363281 -22.921875 4.03125 -22.921875 C 4.695312 -22.921875 5.226562 -22.859375 5.625 -22.734375 C 6.019531 -22.609375 6.289062 -22.390625 6.4375 -22.078125 C 6.6875 -21.597656 6.8125 -20.941406 6.8125 -20.109375 L 6.8125 -10.75 C 6.8125 -9.476562 7.125 -8.269531 7.75 -7.125 C 8.0625 -6.539062 8.53125 -6.070312 9.15625 -5.71875 C 9.78125 -5.363281 10.519531 -5.1875 11.375 -5.1875 C 12.894531 -5.1875 14.023438 -5.75 14.765625 -6.875 C 15.515625 -8 15.890625 -9.300781 15.890625 -10.78125 L 15.890625 -20.328125 C 15.890625 -21.140625 15.992188 -21.710938 16.203125 -22.046875 Z M 16.203125 -22.046875 "/></g></g></g><g fill="#01225a" fill-opacity="0.4"><g transform="translate(157.007611, 265.287916)"><g><path d="M 16.03125 -21.9375 C 16.226562 -22.300781 16.523438 -22.546875 16.921875 -22.671875 C 17.316406 -22.796875 17.8125 -22.859375 18.40625 -22.859375 C 19 -22.859375 19.476562 -22.804688 19.84375 -22.703125 C 20.207031 -22.597656 20.476562 -22.472656 20.65625 -22.328125 C 20.832031 -22.179688 20.960938 -21.960938 21.046875 -21.671875 C 21.171875 -21.335938 21.234375 -20.804688 21.234375 -20.078125 L 21.234375 -2.75 C 21.234375 -2.25 21.21875 -1.882812 21.1875 -1.65625 C 21.15625 -1.425781 21.054688 -1.15625 20.890625 -0.84375 C 20.597656 -0.28125 19.785156 0 18.453125 0 C 17.640625 0 17.078125 -0.0625 16.765625 -0.1875 C 16.453125 -0.3125 16.191406 -0.507812 15.984375 -0.78125 C 11.304688 -7.03125 8.226562 -11.113281 6.75 -13.03125 L 6.75 -2.75 C 6.75 -2.25 6.734375 -1.882812 6.703125 -1.65625 C 6.671875 -1.425781 6.570312 -1.15625 6.40625 -0.84375 C 6.113281 -0.28125 5.300781 0 3.96875 0 C 2.675781 0 1.882812 -0.28125 1.59375 -0.84375 C 1.425781 -1.15625 1.328125 -1.4375 1.296875 -1.6875 C 1.265625 -1.9375 1.25 -2.300781 1.25 -2.78125 L 1.25 -20.203125 C 1.25 -20.992188 1.347656 -21.570312 1.546875 -21.9375 C 1.742188 -22.300781 2.039062 -22.546875 2.4375 -22.671875 C 2.832031 -22.796875 3.34375 -22.859375 3.96875 -22.859375 C 4.59375 -22.859375 5.085938 -22.800781 5.453125 -22.6875 C 5.816406 -22.570312 6.070312 -22.441406 6.21875 -22.296875 C 6.300781 -22.234375 6.539062 -21.960938 6.9375 -21.484375 C 11.332031 -15.515625 14.265625 -11.570312 15.734375 -9.65625 L 15.734375 -20.203125 C 15.734375 -20.992188 15.832031 -21.570312 16.03125 -21.9375 Z M 16.03125 -21.9375 "/></g></g></g><g fill="#01225a" fill-opacity="0.4"><g transform="translate(179.493488, 265.287916)"><g><path d="M 15.390625 -22.046875 C 15.554688 -22.359375 15.835938 -22.578125 16.234375 -22.703125 C 16.628906 -22.828125 17.128906 -22.890625 17.734375 -22.890625 C 18.335938 -22.890625 18.816406 -22.835938 19.171875 -22.734375 C 19.523438 -22.628906 19.796875 -22.503906 19.984375 -22.359375 C 20.171875 -22.210938 20.316406 -22.003906 20.421875 -21.734375 C 20.523438 -21.378906 20.578125 -20.835938 20.578125 -20.109375 L 20.578125 -2.78125 C 20.578125 -2.300781 20.5625 -1.941406 20.53125 -1.703125 C 20.5 -1.460938 20.398438 -1.1875 20.234375 -0.875 C 19.941406 -0.3125 19.128906 -0.03125 17.796875 -0.03125 C 16.335938 -0.03125 15.488281 -0.414062 15.25 -1.1875 C 15.125 -1.539062 15.0625 -2.082031 15.0625 -2.8125 L 15.0625 -9.15625 L 6.78125 -9.15625 L 6.78125 -2.78125 C 6.78125 -2.300781 6.765625 -1.941406 6.734375 -1.703125 C 6.703125 -1.460938 6.601562 -1.1875 6.4375 -0.875 C 6.144531 -0.3125 5.332031 -0.03125 4 -0.03125 C 2.539062 -0.03125 1.6875 -0.414062 1.4375 -1.1875 C 1.3125 -1.539062 1.25 -2.082031 1.25 -2.8125 L 1.25 -20.140625 C 1.25 -20.617188 1.265625 -20.976562 1.296875 -21.21875 C 1.328125 -21.457031 1.425781 -21.734375 1.59375 -22.046875 C 1.882812 -22.609375 2.695312 -22.890625 4.03125 -22.890625 C 5.488281 -22.890625 6.351562 -22.503906 6.625 -21.734375 C 6.726562 -21.378906 6.78125 -20.835938 6.78125 -20.109375 L 6.78125 -13.75 L 15.0625 -13.75 L 15.0625 -20.140625 C 15.0625 -20.617188 15.078125 -20.976562 15.109375 -21.21875 C 15.140625 -21.457031 15.234375 -21.734375 15.390625 -22.046875 Z M 15.390625 -22.046875 "/></g></g></g><g fill="#01225a" fill-opacity="0.4"><g transform="translate(201.323527, 265.287916)"><g><path d="M 14.46875 -21.265625 L 22.890625 -3.84375 C 23.242188 -3.132812 23.421875 -2.601562 23.421875 -2.25 C 23.421875 -1.5 22.816406 -0.820312 21.609375 -0.21875 C 20.898438 0.132812 20.34375 0.3125 19.9375 0.3125 C 19.53125 0.3125 19.195312 0.21875 18.9375 0.03125 C 18.675781 -0.15625 18.488281 -0.351562 18.375 -0.5625 C 18.257812 -0.769531 18.097656 -1.082031 17.890625 -1.5 L 16.265625 -4.875 L 7.625 -4.875 L 6 -1.5 C 5.789062 -1.082031 5.628906 -0.78125 5.515625 -0.59375 C 5.398438 -0.40625 5.210938 -0.210938 4.953125 -0.015625 C 4.691406 0.179688 4.359375 0.28125 3.953125 0.28125 C 3.546875 0.28125 2.988281 0.101562 2.28125 -0.25 C 1.070312 -0.832031 0.46875 -1.5 0.46875 -2.25 C 0.46875 -2.601562 0.644531 -3.132812 1 -3.84375 L 9.4375 -21.296875 C 9.664062 -21.773438 10.015625 -22.160156 10.484375 -22.453125 C 10.953125 -22.742188 11.445312 -22.890625 11.96875 -22.890625 C 13.09375 -22.890625 13.925781 -22.347656 14.46875 -21.265625 Z M 11.9375 -13.78125 L 9.875 -9.5 L 14.03125 -9.5 Z M 11.9375 -13.78125 "/></g></g></g><g fill="#01225a" fill-opacity="0.4"><g transform="translate(225.214772, 265.287916)"><g><path d="M 1.59375 -3.21875 C 1.050781 -3.882812 0.78125 -4.484375 0.78125 -5.015625 C 0.78125 -5.546875 1.226562 -6.25 2.125 -7.125 C 2.644531 -7.625 3.195312 -7.875 3.78125 -7.875 C 4.363281 -7.875 5.175781 -7.351562 6.21875 -6.3125 C 6.507812 -5.957031 6.925781 -5.617188 7.46875 -5.296875 C 8.007812 -4.972656 8.507812 -4.8125 8.96875 -4.8125 C 10.90625 -4.8125 11.875 -5.601562 11.875 -7.1875 C 11.875 -7.664062 11.609375 -8.066406 11.078125 -8.390625 C 10.546875 -8.710938 9.882812 -8.945312 9.09375 -9.09375 C 8.300781 -9.238281 7.445312 -9.472656 6.53125 -9.796875 C 5.613281 -10.117188 4.757812 -10.5 3.96875 -10.9375 C 3.175781 -11.375 2.515625 -12.066406 1.984375 -13.015625 C 1.453125 -13.960938 1.1875 -15.097656 1.1875 -16.421875 C 1.1875 -18.253906 1.867188 -19.851562 3.234375 -21.21875 C 4.597656 -22.582031 6.457031 -23.265625 8.8125 -23.265625 C 10.0625 -23.265625 11.203125 -23.101562 12.234375 -22.78125 C 13.265625 -22.457031 13.976562 -22.128906 14.375 -21.796875 L 15.15625 -21.203125 C 15.789062 -20.597656 16.109375 -20.085938 16.109375 -19.671875 C 16.109375 -19.253906 15.863281 -18.679688 15.375 -17.953125 C 14.664062 -16.910156 13.9375 -16.390625 13.1875 -16.390625 C 12.75 -16.390625 12.207031 -16.597656 11.5625 -17.015625 C 11.5 -17.054688 11.378906 -17.160156 11.203125 -17.328125 C 11.023438 -17.492188 10.863281 -17.628906 10.71875 -17.734375 C 10.28125 -18.003906 9.722656 -18.140625 9.046875 -18.140625 C 8.367188 -18.140625 7.804688 -17.976562 7.359375 -17.65625 C 6.910156 -17.332031 6.6875 -16.882812 6.6875 -16.3125 C 6.6875 -15.75 6.953125 -15.289062 7.484375 -14.9375 C 8.015625 -14.582031 8.675781 -14.34375 9.46875 -14.21875 C 10.257812 -14.09375 11.125 -13.898438 12.0625 -13.640625 C 13 -13.378906 13.859375 -13.0625 14.640625 -12.6875 C 15.429688 -12.3125 16.09375 -11.660156 16.625 -10.734375 C 17.15625 -9.804688 17.421875 -8.664062 17.421875 -7.3125 C 17.421875 -5.957031 17.148438 -4.765625 16.609375 -3.734375 C 16.066406 -2.703125 15.363281 -1.90625 14.5 -1.34375 C 12.8125 -0.238281 11.007812 0.3125 9.09375 0.3125 C 8.113281 0.3125 7.1875 0.191406 6.3125 -0.046875 C 5.4375 -0.285156 4.726562 -0.582031 4.1875 -0.9375 C 3.082031 -1.601562 2.3125 -2.25 1.875 -2.875 Z M 1.59375 -3.21875 "/></g></g></g><g fill="#01225a" fill-opacity="1"><g transform="translate(132.953632, 263.907199)"><g><path d="M 16.203125 -22.046875 C 16.410156 -22.378906 16.710938 -22.609375 17.109375 -22.734375 C 17.503906 -22.859375 18 -22.921875 18.59375 -22.921875 C 19.1875 -22.921875 19.660156 -22.867188 20.015625 -22.765625 C 20.367188 -22.660156 20.640625 -22.535156 20.828125 -22.390625 C 21.015625 -22.242188 21.148438 -22.023438 21.234375 -21.734375 C 21.359375 -21.378906 21.421875 -20.835938 21.421875 -20.109375 L 21.421875 -10.6875 C 21.421875 -7.9375 20.566406 -5.4375 18.859375 -3.1875 C 18.023438 -2.125 16.953125 -1.265625 15.640625 -0.609375 C 14.335938 0.046875 12.890625 0.375 11.296875 0.375 C 9.703125 0.375 8.253906 0.0390625 6.953125 -0.625 C 5.648438 -1.289062 4.59375 -2.164062 3.78125 -3.25 C 2.09375 -5.457031 1.25 -7.957031 1.25 -10.75 L 1.25 -20.140625 C 1.25 -20.640625 1.265625 -21.007812 1.296875 -21.25 C 1.328125 -21.488281 1.425781 -21.765625 1.59375 -22.078125 C 1.757812 -22.390625 2.039062 -22.609375 2.4375 -22.734375 C 2.832031 -22.859375 3.363281 -22.921875 4.03125 -22.921875 C 4.695312 -22.921875 5.226562 -22.859375 5.625 -22.734375 C 6.019531 -22.609375 6.289062 -22.390625 6.4375 -22.078125 C 6.6875 -21.597656 6.8125 -20.941406 6.8125 -20.109375 L 6.8125 -10.75 C 6.8125 -9.476562 7.125 -8.269531 7.75 -7.125 C 8.0625 -6.539062 8.53125 -6.070312 9.15625 -5.71875 C 9.78125 -5.363281 10.519531 -5.1875 11.375 -5.1875 C 12.894531 -5.1875 14.023438 -5.75 14.765625 -6.875 C 15.515625 -8 15.890625 -9.300781 15.890625 -10.78125 L 15.890625 -20.328125 C 15.890625 -21.140625 15.992188 -21.710938 16.203125 -22.046875 Z M 16.203125 -22.046875 "/></g></g></g><g fill="#01225a" fill-opacity="1"><g transform="translate(155.626894, 263.907199)"><g><path d="M 16.03125 -21.9375 C 16.226562 -22.300781 16.523438 -22.546875 16.921875 -22.671875 C 17.316406 -22.796875 17.8125 -22.859375 18.40625 -22.859375 C 19 -22.859375 19.476562 -22.804688 19.84375 -22.703125 C 20.207031 -22.597656 20.476562 -22.472656 20.65625 -22.328125 C 20.832031 -22.179688 20.960938 -21.960938 21.046875 -21.671875 C 21.171875 -21.335938 21.234375 -20.804688 21.234375 -20.078125 L 21.234375 -2.75 C 21.234375 -2.25 21.21875 -1.882812 21.1875 -1.65625 C 21.15625 -1.425781 21.054688 -1.15625 20.890625 -0.84375 C 20.597656 -0.28125 19.785156 0 18.453125 0 C 17.640625 0 17.078125 -0.0625 16.765625 -0.1875 C 16.453125 -0.3125 16.191406 -0.507812 15.984375 -0.78125 C 11.304688 -7.03125 8.226562 -11.113281 6.75 -13.03125 L 6.75 -2.75 C 6.75 -2.25 6.734375 -1.882812 6.703125 -1.65625 C 6.671875 -1.425781 6.570312 -1.15625 6.40625 -0.84375 C 6.113281 -0.28125 5.300781 0 3.96875 0 C 2.675781 0 1.882812 -0.28125 1.59375 -0.84375 C 1.425781 -1.15625 1.328125 -1.4375 1.296875 -1.6875 C 1.265625 -1.9375 1.25 -2.300781 1.25 -2.78125 L 1.25 -20.203125 C 1.25 -20.992188 1.347656 -21.570312 1.546875 -21.9375 C 1.742188 -22.300781 2.039062 -22.546875 2.4375 -22.671875 C 2.832031 -22.796875 3.34375 -22.859375 3.96875 -22.859375 C 4.59375 -22.859375 5.085938 -22.800781 5.453125 -22.6875 C 5.816406 -22.570312 6.070312 -22.441406 6.21875 -22.296875 C 6.300781 -22.234375 6.539062 -21.960938 6.9375 -21.484375 C 11.332031 -15.515625 14.265625 -11.570312 15.734375 -9.65625 L 15.734375 -20.203125 C 15.734375 -20.992188 15.832031 -21.570312 16.03125 -21.9375 Z M 16.03125 -21.9375 "/></g></g></g><g fill="#01225a" fill-opacity="1"><g transform="translate(178.112771, 263.907199)"><g><path d="M 15.390625 -22.046875 C 15.554688 -22.359375 15.835938 -22.578125 16.234375 -22.703125 C 16.628906 -22.828125 17.128906 -22.890625 17.734375 -22.890625 C 18.335938 -22.890625 18.816406 -22.835938 19.171875 -22.734375 C 19.523438 -22.628906 19.796875 -22.503906 19.984375 -22.359375 C 20.171875 -22.210938 20.316406 -22.003906 20.421875 -21.734375 C 20.523438 -21.378906 20.578125 -20.835938 20.578125 -20.109375 L 20.578125 -2.78125 C 20.578125 -2.300781 20.5625 -1.941406 20.53125 -1.703125 C 20.5 -1.460938 20.398438 -1.1875 20.234375 -0.875 C 19.941406 -0.3125 19.128906 -0.03125 17.796875 -0.03125 C 16.335938 -0.03125 15.488281 -0.414062 15.25 -1.1875 C 15.125 -1.539062 15.0625 -2.082031 15.0625 -2.8125 L 15.0625 -9.15625 L 6.78125 -9.15625 L 6.78125 -2.78125 C 6.78125 -2.300781 6.765625 -1.941406 6.734375 -1.703125 C 6.703125 -1.460938 6.601562 -1.1875 6.4375 -0.875 C 6.144531 -0.3125 5.332031 -0.03125 4 -0.03125 C 2.539062 -0.03125 1.6875 -0.414062 1.4375 -1.1875 C 1.3125 -1.539062 1.25 -2.082031 1.25 -2.8125 L 1.25 -20.140625 C 1.25 -20.617188 1.265625 -20.976562 1.296875 -21.21875 C 1.328125 -21.457031 1.425781 -21.734375 1.59375 -22.046875 C 1.882812 -22.609375 2.695312 -22.890625 4.03125 -22.890625 C 5.488281 -22.890625 6.351562 -22.503906 6.625 -21.734375 C 6.726562 -21.378906 6.78125 -20.835938 6.78125 -20.109375 L 6.78125 -13.75 L 15.0625 -13.75 L 15.0625 -20.140625 C 15.0625 -20.617188 15.078125 -20.976562 15.109375 -21.21875 C 15.140625 -21.457031 15.234375 -21.734375 15.390625 -22.046875 Z M 15.390625 -22.046875 "/></g></g></g><g fill="#01225a" fill-opacity="1"><g transform="translate(199.942809, 263.907199)"><g><path d="M 14.46875 -21.265625 L 22.890625 -3.84375 C 23.242188 -3.132812 23.421875 -2.601562 23.421875 -2.25 C 23.421875 -1.5 22.816406 -0.820312 21.609375 -0.21875 C 20.898438 0.132812 20.34375 0.3125 19.9375 0.3125 C 19.53125 0.3125 19.195312 0.21875 18.9375 0.03125 C 18.675781 -0.15625 18.488281 -0.351562 18.375 -0.5625 C 18.257812 -0.769531 18.097656 -1.082031 17.890625 -1.5 L 16.265625 -4.875 L 7.625 -4.875 L 6 -1.5 C 5.789062 -1.082031 5.628906 -0.78125 5.515625 -0.59375 C 5.398438 -0.40625 5.210938 -0.210938 4.953125 -0.015625 C 4.691406 0.179688 4.359375 0.28125 3.953125 0.28125 C 3.546875 0.28125 2.988281 0.101562 2.28125 -0.25 C 1.070312 -0.832031 0.46875 -1.5 0.46875 -2.25 C 0.46875 -2.601562 0.644531 -3.132812 1 -3.84375 L 9.4375 -21.296875 C 9.664062 -21.773438 10.015625 -22.160156 10.484375 -22.453125 C 10.953125 -22.742188 11.445312 -22.890625 11.96875 -22.890625 C 13.09375 -22.890625 13.925781 -22.347656 14.46875 -21.265625 Z M 11.9375 -13.78125 L 9.875 -9.5 L 14.03125 -9.5 Z M 11.9375 -13.78125 "/></g></g></g><g fill="#01225a" fill-opacity="1"><g transform="translate(223.834055, 263.907199)"><g><path d="M 1.59375 -3.21875 C 1.050781 -3.882812 0.78125 -4.484375 0.78125 -5.015625 C 0.78125 -5.546875 1.226562 -6.25 2.125 -7.125 C 2.644531 -7.625 3.195312 -7.875 3.78125 -7.875 C 4.363281 -7.875 5.175781 -7.351562 6.21875 -6.3125 C 6.507812 -5.957031 6.925781 -5.617188 7.46875 -5.296875 C 8.007812 -4.972656 8.507812 -4.8125 8.96875 -4.8125 C 10.90625 -4.8125 11.875 -5.601562 11.875 -7.1875 C 11.875 -7.664062 11.609375 -8.066406 11.078125 -8.390625 C 10.546875 -8.710938 9.882812 -8.945312 9.09375 -9.09375 C 8.300781 -9.238281 7.445312 -9.472656 6.53125 -9.796875 C 5.613281 -10.117188 4.757812 -10.5 3.96875 -10.9375 C 3.175781 -11.375 2.515625 -12.066406 1.984375 -13.015625 C 1.453125 -13.960938 1.1875 -15.097656 1.1875 -16.421875 C 1.1875 -18.253906 1.867188 -19.851562 3.234375 -21.21875 C 4.597656 -22.582031 6.457031 -23.265625 8.8125 -23.265625 C 10.0625 -23.265625 11.203125 -23.101562 12.234375 -22.78125 C 13.265625 -22.457031 13.976562 -22.128906 14.375 -21.796875 L 15.15625 -21.203125 C 15.789062 -20.597656 16.109375 -20.085938 16.109375 -19.671875 C 16.109375 -19.253906 15.863281 -18.679688 15.375 -17.953125 C 14.664062 -16.910156 13.9375 -16.390625 13.1875 -16.390625 C 12.75 -16.390625 12.207031 -16.597656 11.5625 -17.015625 C 11.5 -17.054688 11.378906 -17.160156 11.203125 -17.328125 C 11.023438 -17.492188 10.863281 -17.628906 10.71875 -17.734375 C 10.28125 -18.003906 9.722656 -18.140625 9.046875 -18.140625 C 8.367188 -18.140625 7.804688 -17.976562 7.359375 -17.65625 C 6.910156 -17.332031 6.6875 -16.882812 6.6875 -16.3125 C 6.6875 -15.75 6.953125 -15.289062 7.484375 -14.9375 C 8.015625 -14.582031 8.675781 -14.34375 9.46875 -14.21875 C 10.257812 -14.09375 11.125 -13.898438 12.0625 -13.640625 C 13 -13.378906 13.859375 -13.0625 14.640625 -12.6875 C 15.429688 -12.3125 16.09375 -11.660156 16.625 -10.734375 C 17.15625 -9.804688 17.421875 -8.664062 17.421875 -7.3125 C 17.421875 -5.957031 17.148438 -4.765625 16.609375 -3.734375 C 16.066406 -2.703125 15.363281 -1.90625 14.5 -1.34375 C 12.8125 -0.238281 11.007812 0.3125 9.09375 0.3125 C 8.113281 0.3125 7.1875 0.191406 6.3125 -0.046875 C 5.4375 -0.285156 4.726562 -0.582031 4.1875 -0.9375 C 3.082031 -1.601562 2.3125 -2.25 1.875 -2.875 Z M 1.59375 -3.21875 "/></g></g></g><g fill="#01225a" fill-opacity="1"><g transform="translate(126.401965, 288.604466)"><g><path d="M 7.328125 -13.90625 C 8.648438 -13.90625 9.796875 -13.617188 10.765625 -13.046875 C 11.734375 -12.484375 12.476562 -11.675781 13 -10.625 C 13.519531 -9.570312 13.78125 -8.316406 13.78125 -6.859375 C 13.78125 -5.390625 13.519531 -4.128906 13 -3.078125 C 12.476562 -2.023438 11.734375 -1.210938 10.765625 -0.640625 C 9.796875 -0.078125 8.648438 0.203125 7.328125 0.203125 C 5.992188 0.203125 4.835938 -0.078125 3.859375 -0.640625 C 2.890625 -1.210938 2.140625 -2.023438 1.609375 -3.078125 C 1.085938 -4.128906 0.828125 -5.390625 0.828125 -6.859375 C 0.828125 -8.316406 1.085938 -9.570312 1.609375 -10.625 C 2.140625 -11.675781 2.890625 -12.484375 3.859375 -13.046875 C 4.835938 -13.617188 5.992188 -13.90625 7.328125 -13.90625 Z M 7.328125 -12.015625 C 6.035156 -12.015625 5.039062 -11.5625 4.34375 -10.65625 C 3.644531 -9.757812 3.296875 -8.492188 3.296875 -6.859375 C 3.296875 -5.210938 3.644531 -3.941406 4.34375 -3.046875 C 5.039062 -2.160156 6.035156 -1.71875 7.328125 -1.71875 C 8.617188 -1.71875 9.613281 -2.160156 10.3125 -3.046875 C 11.007812 -3.941406 11.359375 -5.210938 11.359375 -6.859375 C 11.359375 -8.492188 11.007812 -9.757812 10.3125 -10.65625 C 9.613281 -11.5625 8.617188 -12.015625 7.328125 -12.015625 Z M 7.328125 -12.015625 "/></g></g></g><g fill="#01225a" fill-opacity="1"><g transform="translate(140.970531, 288.604466)"><g><path d="M 8.453125 0 L 7.59375 0 L 7.59375 -6.453125 C 7.59375 -6.910156 7.4375 -7.300781 7.125 -7.625 C 6.820312 -7.945312 6.441406 -8.109375 5.984375 -8.109375 L 3.125 -8.109375 L 3.125 0 L 1.21875 0 L 1.21875 -9.796875 L 6.625 -9.796875 C 7.15625 -9.796875 7.644531 -9.660156 8.09375 -9.390625 C 8.539062 -9.117188 8.898438 -8.757812 9.171875 -8.3125 C 9.453125 -7.875 9.59375 -7.390625 9.59375 -6.859375 L 9.59375 0 Z M 8.453125 0 "/></g></g></g><g fill="#01225a" fill-opacity="1"><g transform="translate(151.701144, 288.604466)"><g><path d="M 2.265625 -14.6875 L 3.125 -14.6875 L 3.125 0 L 1.21875 0 L 1.21875 -14.6875 Z M 2.265625 -14.6875 "/></g></g></g><g fill="#01225a" fill-opacity="1"><g transform="translate(156.009046, 288.604466)"><g><path d="M 0.828125 -13.359375 C 0.828125 -13.703125 0.953125 -13.988281 1.203125 -14.21875 C 1.453125 -14.445312 1.753906 -14.5625 2.109375 -14.5625 C 2.460938 -14.5625 2.765625 -14.445312 3.015625 -14.21875 C 3.273438 -13.988281 3.40625 -13.703125 3.40625 -13.359375 C 3.40625 -13.003906 3.273438 -12.691406 3.015625 -12.421875 C 2.765625 -12.148438 2.460938 -12.015625 2.109375 -12.015625 C 1.753906 -12.015625 1.453125 -12.148438 1.203125 -12.421875 C 0.953125 -12.691406 0.828125 -13.003906 0.828125 -13.359375 Z M 2.234375 -9.796875 L 3.09375 -9.796875 L 3.09375 0 L 1.140625 0 L 1.140625 -9.796875 Z M 2.234375 -9.796875 "/></g></g></g><g fill="#01225a" fill-opacity="1"><g transform="translate(160.199467, 288.604466)"><g><path d="M 8.453125 0 L 7.59375 0 L 7.59375 -6.453125 C 7.59375 -6.910156 7.4375 -7.300781 7.125 -7.625 C 6.820312 -7.945312 6.441406 -8.109375 5.984375 -8.109375 L 3.125 -8.109375 L 3.125 0 L 1.21875 0 L 1.21875 -9.796875 L 6.625 -9.796875 C 7.15625 -9.796875 7.644531 -9.660156 8.09375 -9.390625 C 8.539062 -9.117188 8.898438 -8.757812 9.171875 -8.3125 C 9.453125 -7.875 9.59375 -7.390625 9.59375 -6.859375 L 9.59375 0 Z M 8.453125 0 "/></g></g></g><g fill="#01225a" fill-opacity="1"><g transform="translate(170.93008, 288.604466)"><g><path d="M 8.921875 0 L 5.515625 0 C 4.578125 0 3.753906 -0.195312 3.046875 -0.59375 C 2.347656 -0.988281 1.800781 -1.5625 1.40625 -2.3125 C 1.019531 -3.070312 0.828125 -3.972656 0.828125 -5.015625 C 0.828125 -6.015625 1.019531 -6.882812 1.40625 -7.625 C 1.789062 -8.375 2.332031 -8.953125 3.03125 -9.359375 C 3.738281 -9.773438 4.566406 -9.984375 5.515625 -9.984375 C 6.472656 -9.984375 7.300781 -9.773438 8 -9.359375 C 8.707031 -8.953125 9.253906 -8.375 9.640625 -7.625 C 10.023438 -6.882812 10.21875 -6.015625 10.21875 -5.015625 C 10.21875 -4.890625 10.210938 -4.769531 10.203125 -4.65625 C 10.191406 -4.550781 10.171875 -4.445312 10.140625 -4.34375 L 2.8125 -4.34375 C 2.9375 -3.375 3.269531 -2.648438 3.8125 -2.171875 C 4.363281 -1.691406 5.085938 -1.453125 5.984375 -1.453125 L 8.921875 -1.453125 Z M 8.25 -5.59375 C 8.15625 -6.519531 7.875 -7.25 7.40625 -7.78125 C 6.9375 -8.3125 6.304688 -8.578125 5.515625 -8.578125 C 4.722656 -8.578125 4.085938 -8.3125 3.609375 -7.78125 C 3.128906 -7.25 2.859375 -6.519531 2.796875 -5.59375 Z M 8.25 -5.59375 "/></g></g></g><g fill="#01225a" fill-opacity="1"><g transform="translate(181.934823, 288.604466)"><g/></g></g><g fill="#01225a" fill-opacity="1"><g transform="translate(186.98683, 288.604466)"><g><path d="M 10.21875 -11.828125 L 7.359375 -11.828125 C 6.585938 -11.828125 5.867188 -11.660156 5.203125 -11.328125 C 4.535156 -11.003906 3.992188 -10.476562 3.578125 -9.75 C 3.171875 -9.019531 2.96875 -8.054688 2.96875 -6.859375 C 2.96875 -5.648438 3.175781 -4.679688 3.59375 -3.953125 C 4.019531 -3.234375 4.566406 -2.710938 5.234375 -2.390625 C 5.910156 -2.078125 6.617188 -1.921875 7.359375 -1.921875 L 11.90625 -1.921875 L 11.90625 0 L 6.734375 0 C 5.972656 0 5.238281 -0.128906 4.53125 -0.390625 C 3.820312 -0.660156 3.1875 -1.070312 2.625 -1.625 C 2.070312 -2.1875 1.632812 -2.898438 1.3125 -3.765625 C 0.988281 -4.640625 0.828125 -5.671875 0.828125 -6.859375 C 0.828125 -8.054688 0.988281 -9.082031 1.3125 -9.9375 C 1.632812 -10.800781 2.070312 -11.507812 2.625 -12.0625 C 3.1875 -12.625 3.820312 -13.035156 4.53125 -13.296875 C 5.238281 -13.566406 5.972656 -13.703125 6.734375 -13.703125 L 11.90625 -13.703125 L 11.90625 -11.828125 Z M 10.21875 -11.828125 "/></g></g></g><g fill="#01225a" fill-opacity="1"><g transform="translate(199.205627, 288.604466)"><g><path d="M 5.515625 -8.34375 C 4.640625 -8.34375 3.960938 -8.035156 3.484375 -7.421875 C 3.015625 -6.816406 2.78125 -5.972656 2.78125 -4.890625 C 2.78125 -3.828125 3.015625 -2.992188 3.484375 -2.390625 C 3.960938 -1.785156 4.640625 -1.484375 5.515625 -1.484375 C 6.378906 -1.484375 7.050781 -1.785156 7.53125 -2.390625 C 8.019531 -2.992188 8.265625 -3.828125 8.265625 -4.890625 C 8.265625 -5.972656 8.019531 -6.816406 7.53125 -7.421875 C 7.050781 -8.035156 6.378906 -8.34375 5.515625 -8.34375 Z M 5.515625 -9.984375 C 6.472656 -9.984375 7.300781 -9.773438 8 -9.359375 C 8.707031 -8.941406 9.253906 -8.347656 9.640625 -7.578125 C 10.023438 -6.816406 10.21875 -5.921875 10.21875 -4.890625 C 10.21875 -3.847656 10.023438 -2.941406 9.640625 -2.171875 C 9.253906 -1.410156 8.707031 -0.820312 8 -0.40625 C 7.300781 0 6.472656 0.203125 5.515625 0.203125 C 4.566406 0.203125 3.738281 -0.00390625 3.03125 -0.421875 C 2.332031 -0.847656 1.789062 -1.441406 1.40625 -2.203125 C 1.019531 -2.960938 0.828125 -3.859375 0.828125 -4.890625 C 0.828125 -5.921875 1.019531 -6.816406 1.40625 -7.578125 C 1.789062 -8.347656 2.332031 -8.941406 3.03125 -9.359375 C 3.738281 -9.773438 4.566406 -9.984375 5.515625 -9.984375 Z M 5.515625 -9.984375 "/></g></g></g><g fill="#01225a" fill-opacity="1"><g transform="translate(210.210369, 288.604466)"><g><path d="M 2.265625 -9.796875 L 3.125 -9.796875 L 3.125 -3.328125 C 3.125 -2.878906 3.285156 -2.5 3.609375 -2.1875 C 3.941406 -1.875 4.332031 -1.71875 4.78125 -1.71875 L 7.59375 -1.71875 L 7.59375 -9.796875 L 9.59375 -9.796875 L 9.59375 0 L 4.15625 0 C 3.613281 0 3.117188 -0.128906 2.671875 -0.390625 C 2.234375 -0.660156 1.878906 -1.019531 1.609375 -1.46875 C 1.347656 -1.914062 1.21875 -2.40625 1.21875 -2.9375 L 1.21875 -9.796875 Z M 2.265625 -9.796875 "/></g></g></g><g fill="#01225a" fill-opacity="1"><g transform="translate(220.940982, 288.604466)"><g><path d="M 7.640625 -9.796875 L 7.640625 -8.109375 L 3.125 -8.109375 L 3.125 0 L 1.21875 0 L 1.21875 -9.796875 Z M 7.640625 -9.796875 "/></g></g></g><g fill="#01225a" fill-opacity="1"><g transform="translate(228.734383, 288.604466)"><g><path d="M 5.984375 -8.34375 L 4.03125 -8.34375 C 3.644531 -8.34375 3.335938 -8.226562 3.109375 -8 C 2.890625 -7.78125 2.78125 -7.503906 2.78125 -7.171875 C 2.78125 -6.773438 2.878906 -6.476562 3.078125 -6.28125 C 3.273438 -6.082031 3.515625 -5.945312 3.796875 -5.875 L 6.21875 -5.328125 C 6.925781 -5.191406 7.472656 -4.898438 7.859375 -4.453125 C 8.253906 -4.003906 8.453125 -3.367188 8.453125 -2.546875 C 8.453125 -1.785156 8.195312 -1.171875 7.6875 -0.703125 C 7.1875 -0.234375 6.503906 0 5.640625 0 L 1.328125 0 L 1.328125 -1.453125 L 5.328125 -1.453125 C 5.710938 -1.453125 6.003906 -1.566406 6.203125 -1.796875 C 6.398438 -2.023438 6.5 -2.300781 6.5 -2.625 C 6.5 -3.007812 6.40625 -3.304688 6.21875 -3.515625 C 6.03125 -3.734375 5.785156 -3.878906 5.484375 -3.953125 L 3.09375 -4.46875 C 2.46875 -4.601562 1.929688 -4.878906 1.484375 -5.296875 C 1.046875 -5.722656 0.828125 -6.375 0.828125 -7.25 C 0.828125 -8.050781 1.085938 -8.675781 1.609375 -9.125 C 2.128906 -9.570312 2.820312 -9.796875 3.6875 -9.796875 L 7.484375 -9.796875 L 7.484375 -8.34375 Z M 5.984375 -8.34375 "/></g></g></g><g fill="#01225a" fill-opacity="1"><g transform="translate(237.585174, 288.604466)"><g><path d="M 8.921875 0 L 5.515625 0 C 4.578125 0 3.753906 -0.195312 3.046875 -0.59375 C 2.347656 -0.988281 1.800781 -1.5625 1.40625 -2.3125 C 1.019531 -3.070312 0.828125 -3.972656 0.828125 -5.015625 C 0.828125 -6.015625 1.019531 -6.882812 1.40625 -7.625 C 1.789062 -8.375 2.332031 -8.953125 3.03125 -9.359375 C 3.738281 -9.773438 4.566406 -9.984375 5.515625 -9.984375 C 6.472656 -9.984375 7.300781 -9.773438 8 -9.359375 C 8.707031 -8.953125 9.253906 -8.375 9.640625 -7.625 C 10.023438 -6.882812 10.21875 -6.015625 10.21875 -5.015625 C 10.21875 -4.890625 10.210938 -4.769531 10.203125 -4.65625 C 10.191406 -4.550781 10.171875 -4.445312 10.140625 -4.34375 L 2.8125 -4.34375 C 2.9375 -3.375 3.269531 -2.648438 3.8125 -2.171875 C 4.363281 -1.691406 5.085938 -1.453125 5.984375 -1.453125 L 8.921875 -1.453125 Z M 8.25 -5.59375 C 8.15625 -6.519531 7.875 -7.25 7.40625 -7.78125 C 6.9375 -8.3125 6.304688 -8.578125 5.515625 -8.578125 C 4.722656 -8.578125 4.085938 -8.3125 3.609375 -7.78125 C 3.128906 -7.25 2.859375 -6.519531 2.796875 -5.59375 Z M 8.25 -5.59375 "/></g></g></g><g clip-path="url(#79159bdb82)"><path fill="#243773" d="M 256.550781 143.863281 C 256.695312 144.027344 256.875 144.132812 257.070312 144.199219 C 257.265625 144.304688 257.476562 144.34375 257.695312 144.335938 C 258.851562 144.292969 260.011719 144.253906 261.167969 144.222656 C 262.078125 144.199219 262.988281 144.179688 263.910156 144.164062 C 263.910156 144.410156 263.910156 144.644531 263.910156 144.886719 C 263.902344 147.117188 263.890625 149.34375 263.875 151.566406 C 263.875 152.003906 264.0625 152.394531 264.355469 152.710938 C 264.648438 153.027344 265.089844 153.167969 265.503906 153.191406 C 265.730469 153.199219 265.933594 153.152344 266.128906 153.054688 C 266.332031 152.988281 266.503906 152.875 266.648438 152.71875 C 266.941406 152.425781 267.121094 151.988281 267.128906 151.574219 C 267.136719 150.320312 267.136719 149.066406 267.144531 147.816406 C 267.152344 146.589844 267.152344 145.359375 267.160156 144.132812 C 267.265625 144.132812 267.375 144.132812 267.480469 144.132812 C 269.558594 144.125 271.652344 144.132812 273.730469 144.171875 C 274.171875 144.179688 274.570312 143.984375 274.878906 143.691406 C 275.195312 143.398438 275.335938 142.960938 275.359375 142.546875 C 275.367188 142.320312 275.316406 142.117188 275.21875 141.921875 C 275.15625 141.71875 275.042969 141.546875 274.886719 141.398438 C 274.585938 141.097656 274.15625 140.929688 273.742188 140.921875 C 272.585938 140.894531 271.421875 140.886719 270.269531 140.878906 C 269.242188 140.871094 268.210938 140.871094 267.1875 140.878906 C 267.195312 138.75 267.203125 136.609375 267.21875 134.480469 C 267.21875 134.039062 267.03125 133.648438 266.738281 133.332031 C 266.445312 133.015625 266.007812 132.878906 265.59375 132.851562 C 265.363281 132.84375 265.160156 132.894531 264.964844 132.992188 C 264.761719 133.054688 264.59375 133.171875 264.445312 133.324219 C 264.152344 133.617188 263.972656 134.058594 263.964844 134.472656 C 263.957031 135.722656 263.957031 136.976562 263.949219 138.226562 C 263.949219 139.121094 263.941406 140.015625 263.941406 140.910156 C 261.867188 140.945312 259.792969 141 257.710938 141.082031 C 257.265625 141.097656 256.890625 141.261719 256.566406 141.5625 C 256.25 141.855469 256.109375 142.292969 256.085938 142.710938 C 256.078125 142.9375 256.125 143.140625 256.222656 143.335938 C 256.28125 143.539062 256.394531 143.710938 256.550781 143.863281 Z M 244.734375 160.152344 C 246.164062 160.09375 247.597656 160.046875 249.027344 160.023438 C 249.109375 160.023438 249.199219 160.023438 249.28125 160.015625 C 249.28125 159.136719 249.289062 158.265625 249.289062 157.386719 C 249.289062 156.5 249.296875 155.613281 249.296875 154.726562 C 249.296875 154.46875 249.410156 154.191406 249.597656 154.011719 C 249.777344 153.832031 250.058594 153.703125 250.3125 153.710938 C 250.574219 153.71875 250.847656 153.808594 251.027344 154.011719 C 251.207031 154.207031 251.328125 154.460938 251.328125 154.726562 C 251.320312 156.296875 251.3125 157.867188 251.304688 159.445312 C 251.304688 159.625 251.304688 159.8125 251.304688 159.988281 C 251.972656 159.980469 252.644531 159.980469 253.3125 159.980469 C 254.125 159.980469 254.929688 159.988281 255.746094 160.003906 C 256.003906 160.003906 256.273438 160.121094 256.460938 160.308594 C 256.640625 160.484375 256.769531 160.769531 256.761719 161.023438 C 256.753906 161.28125 256.664062 161.558594 256.460938 161.738281 C 256.265625 161.917969 256.011719 162.039062 255.746094 162.039062 C 254.3125 162.015625 252.882812 162.015625 251.449219 162.023438 C 251.402344 162.023438 251.34375 162.023438 251.296875 162.023438 C 251.296875 162.738281 251.289062 163.453125 251.289062 164.175781 C 251.289062 165.0625 251.28125 165.949219 251.28125 166.835938 C 251.28125 167.097656 251.167969 167.375 250.980469 167.550781 C 250.800781 167.730469 250.515625 167.859375 250.261719 167.851562 C 250.003906 167.84375 249.726562 167.753906 249.546875 167.550781 C 249.367188 167.355469 249.246094 167.105469 249.246094 166.835938 C 249.253906 165.265625 249.261719 163.699219 249.269531 162.121094 C 249.269531 162.09375 249.269531 162.070312 249.269531 162.046875 C 248.570312 162.0625 247.863281 162.078125 247.164062 162.09375 C 246.351562 162.121094 245.546875 162.144531 244.734375 162.183594 C 244.480469 162.191406 244.1875 162.0625 244.019531 161.882812 C 243.839844 161.707031 243.710938 161.421875 243.71875 161.167969 C 243.742188 160.597656 244.164062 160.175781 244.734375 160.152344 Z M 277.132812 148.808594 C 278.214844 148.808594 279.300781 148.816406 280.382812 148.832031 C 280.382812 148.425781 280.382812 148.027344 280.390625 147.621094 C 280.390625 147.035156 280.402344 146.449219 280.402344 145.871094 C 280.402344 145.554688 280.675781 145.246094 281.011719 145.261719 C 281.335938 145.277344 281.621094 145.53125 281.621094 145.871094 C 281.613281 146.871094 281.613281 147.863281 281.605469 148.863281 C 282.09375 148.882812 282.578125 148.898438 283.058594 148.914062 C 283.621094 148.9375 284.183594 148.960938 284.734375 148.996094 C 285.050781 149.011719 285.359375 149.261719 285.34375 149.605469 C 285.328125 149.921875 285.078125 150.230469 284.734375 150.214844 C 283.6875 150.15625 282.636719 150.117188 281.597656 150.085938 C 281.597656 150.679688 281.585938 151.273438 281.585938 151.859375 C 281.585938 152.441406 281.578125 153.027344 281.578125 153.605469 C 281.578125 153.921875 281.304688 154.230469 280.96875 154.214844 C 280.644531 154.199219 280.359375 153.949219 280.359375 153.605469 C 280.367188 152.417969 280.367188 151.230469 280.375 150.042969 C 279.855469 150.035156 279.335938 150.027344 278.804688 150.019531 C 278.246094 150.011719 277.683594 150.011719 277.125 150.011719 C 276.804688 150.011719 276.496094 149.726562 276.511719 149.402344 C 276.539062 149.085938 276.789062 148.808594 277.132812 148.808594 Z M 253.078125 133.046875 C 252.34375 133.007812 251.605469 132.984375 250.875 132.957031 C 250.875 133.390625 250.875 133.820312 250.863281 134.261719 C 250.863281 134.714844 250.855469 135.179688 250.855469 135.632812 C 250.855469 135.953125 250.582031 136.261719 250.246094 136.246094 C 249.921875 136.226562 249.636719 135.976562 249.636719 135.632812 C 249.636719 134.730469 249.644531 133.828125 249.644531 132.925781 C 249.3125 132.917969 248.988281 132.917969 248.652344 132.910156 C 248.238281 132.910156 247.816406 132.902344 247.402344 132.910156 C 247.082031 132.910156 246.773438 132.625 246.792969 132.300781 C 246.808594 131.96875 247.058594 131.691406 247.402344 131.691406 C 248.148438 131.691406 248.90625 131.691406 249.652344 131.707031 C 249.652344 131.398438 249.652344 131.082031 249.660156 130.769531 C 249.660156 130.316406 249.667969 129.851562 249.667969 129.398438 C 249.667969 129.078125 249.945312 128.769531 250.28125 128.789062 C 250.605469 128.804688 250.890625 129.054688 250.890625 129.398438 C 250.890625 130.179688 250.882812 130.957031 250.882812 131.738281 C 251.199219 131.746094 251.507812 131.753906 251.824219 131.773438 C 252.238281 131.789062 252.664062 131.804688 253.078125 131.828125 C 253.394531 131.84375 253.703125 132.097656 253.6875 132.4375 C 253.671875 132.746094 253.417969 133.066406 253.078125 133.046875 Z M 269.136719 161.03125 C 269.707031 161.03125 270.269531 161.03125 270.835938 161.046875 C 270.835938 160.46875 270.84375 159.882812 270.84375 159.304688 C 270.84375 158.996094 271.113281 158.695312 271.4375 158.710938 C 271.757812 158.730469 272.03125 158.972656 272.03125 159.304688 C 272.03125 159.898438 272.023438 160.484375 272.023438 161.078125 C 272.578125 161.09375 273.121094 161.121094 273.675781 161.144531 C 273.984375 161.160156 274.285156 161.40625 274.269531 161.738281 C 274.253906 162.046875 274.007812 162.347656 273.675781 162.332031 C 273.121094 162.300781 272.570312 162.28125 272.015625 162.265625 C 272.015625 162.941406 272.007812 163.617188 272.007812 164.300781 C 272.007812 164.609375 271.738281 164.910156 271.414062 164.894531 C 271.097656 164.875 270.820312 164.632812 270.820312 164.300781 C 270.820312 163.617188 270.828125 162.925781 270.828125 162.242188 C 270.269531 162.234375 269.699219 162.226562 269.136719 162.226562 C 268.828125 162.226562 268.527344 161.949219 268.542969 161.632812 C 268.558594 161.296875 268.804688 161.03125 269.136719 161.03125 Z M 284.757812 129.972656 L 284.75 131.804688 C 284.75 132.226562 284.375 132.632812 283.9375 132.617188 C 283.5 132.601562 283.125 132.257812 283.125 131.804688 L 283.140625 128.210938 C 282.695312 128.195312 282.246094 128.175781 281.800781 128.167969 C 281.238281 128.152344 280.675781 128.144531 280.117188 128.144531 C 279.691406 128.144531 279.285156 127.769531 279.300781 127.332031 C 279.320312 126.890625 279.660156 126.519531 280.117188 126.519531 C 281.125 126.519531 282.132812 126.550781 283.148438 126.582031 L 283.15625 125.257812 L 283.164062 123.4375 C 283.164062 123.011719 283.539062 122.605469 283.976562 122.625 C 284.417969 122.640625 284.792969 122.980469 284.792969 123.4375 C 284.785156 124.511719 284.785156 125.574219 284.777344 126.648438 C 285.199219 126.664062 285.628906 126.679688 286.050781 126.6875 C 286.613281 126.707031 287.175781 126.714844 287.726562 126.714844 C 288.148438 126.714844 288.558594 127.085938 288.539062 127.527344 C 288.523438 127.964844 288.183594 128.339844 287.726562 128.339844 C 286.742188 128.339844 285.75 128.308594 284.765625 128.273438 C 284.765625 128.835938 284.757812 129.40625 284.757812 129.972656 Z M 284.757812 129.972656 " fill-opacity="1" fill-rule="nonzero"/></g></svg>